<?xml version="1.0" encoding="UTF-8" standalone="no"?>
<svg width="63px" height="86px" viewBox="0 0 63 86" version="1.1" xmlns="http://www.w3.org/2000/svg" xmlns:xlink="http://www.w3.org/1999/xlink">
    <!-- Generator: Sketch 40.3 (33839) - http://www.bohemiancoding.com/sketch -->
    <title>98219</title>
    <desc>Created with Sketch.</desc>
    <defs></defs>
    <g id="NEW" stroke="none" stroke-width="1" fill="none" fill-rule="evenodd" opacity="0.5">
        <g id="F_LOT_CRE=0" transform="translate(-1229.000000, -1312.000000)" fill="#CFCFCF">
            <g id="98219" transform="translate(1260.500000, 1355.000000) scale(-1, 1) translate(-1260.500000, -1355.000000) translate(1229.000000, 1312.000000)">
                <g id="Group">
                    <polygon id="Shape" points="23.94 47.5227381 22.68 30.5260072 24.99 47.4184637"></polygon>
                    <polygon id="Shape" points="23.205 29.9003607 57.96 22.079779 58.17 23.1225232"></polygon>
                    <polygon id="Shape" points="22.68 29.9003607 16.065 6.33434119 17.01 6.12579234"></polygon>
                    <polygon id="Shape" points="23.835 29.2747141 41.79 5.29159696 42.63 5.9172435"></polygon>
                    <polygon id="Shape" points="23.205 29.9003607 25.83 11.5480623 26.775 11.7566112"></polygon>
                    <path d="M4.305,85.7914512 C4.305,85.7914512 4.305,84.9572558 4.41,83.6016883 C4.41,82.8717673 4.41,82.0375719 4.515,81.0991021 C4.62,80.1606323 4.725,79.0136137 4.83,77.866595 C4.935,76.7195764 5.145,75.4682833 5.355,74.1127158 C5.565,72.7571483 5.88,71.4015808 6.09,69.9417389 C6.405,68.481897 6.72,67.0220551 7.14,65.4579388 C7.455,63.8938224 7.98,62.4339805 8.4,60.8698642 C8.82,59.3057478 9.345,57.8459059 9.87,56.386064 C10.395,54.9262221 10.92,53.4663802 11.445,52.1108127 C12.495,49.2954033 13.545,46.7928171 14.595,44.6030543 C16.485,40.2235285 18.06,37.5123935 18.06,37.5123935 L19.005,38.0337656 C19.005,38.0337656 18.585,38.6594122 17.955,39.9107052 C17.325,41.1619983 16.38,42.8303891 15.435,45.0201519 C14.385,47.1056404 13.335,49.712501 12.18,52.4236359 C11.655,53.7792034 11.13,55.2390454 10.5,56.6988873 C9.975,58.1587292 9.45,59.6185711 8.925,61.1826874 C8.505,62.6425294 7.98,64.2066457 7.56,65.6664876 C7.14,67.1263295 6.72,68.5861714 6.405,70.0460134 C6.09,71.5058553 5.775,72.8614228 5.565,74.2169903 C5.355,75.5725577 5.04,76.8238508 4.935,77.9708695 C4.83,79.1178881 4.725,80.2649068 4.62,81.2033766 C4.515,82.1418464 4.515,82.9760417 4.515,83.7059627 C4.305,84.9572558 4.305,85.7914512 4.305,85.7914512 L4.305,85.7914512 Z" id="Shape"></path>
                    <polygon id="Shape" points="22.68 29.9003607 38.64 44.3945054 37.905 45.1244264"></polygon>
                    <polygon id="Shape" points="22.68 29.9003607 3.57 24.2695419 3.885 23.3310721"></polygon>
                    <path d="M45.255,3.72748062 C44.31,3.72748062 43.47,2.99755967 43.47,1.95481544 C43.47,1.01634564 44.205,0.182150257 45.255,0.182150257 C46.2,0.182150257 47.04,0.912071215 47.04,1.95481544 C47.04,2.89328524 46.2,3.72748062 45.255,3.72748062 L45.255,3.72748062 Z M45.255,1.22489448 C44.835,1.22489448 44.52,1.53771775 44.52,1.95481544 C44.52,2.37191313 44.835,2.6847364 45.255,2.6847364 C45.675,2.6847364 45.99,2.37191313 45.99,1.95481544 C45.99,1.53771775 45.675,1.22489448 45.255,1.22489448 L45.255,1.22489448 Z" id="Shape"></path>
                    <path d="M27.51,9.14975059 C26.565,9.14975059 25.725,8.41982964 25.725,7.37708541 C25.725,6.43861561 26.46,5.60442023 27.51,5.60442023 C28.56,5.60442023 29.295,6.33434119 29.295,7.37708541 C29.295,8.41982964 28.455,9.14975059 27.51,9.14975059 L27.51,9.14975059 Z M27.51,6.75143888 C27.09,6.75143888 26.775,7.06426214 26.775,7.48135983 C26.775,7.89845752 27.09,8.21128079 27.51,8.21128079 C27.93,8.21128079 28.245,7.89845752 28.245,7.48135983 C28.245,7.06426214 27.93,6.75143888 27.51,6.75143888 L27.51,6.75143888 Z" id="Shape"></path>
                    <path d="M1.89,12.1737088 C0.945,12.1737088 0.105,11.4437879 0.105,10.4010437 C0.105,9.46257386 0.84,8.62837848 1.89,8.62837848 C2.835,8.62837848 3.675,9.35829944 3.675,10.4010437 C3.57,11.4437879 2.835,12.1737088 1.89,12.1737088 L1.89,12.1737088 Z M1.89,9.77539713 C1.47,9.77539713 1.155,10.0882204 1.155,10.5053181 C1.155,10.9224158 1.47,11.235239 1.89,11.235239 C2.31,11.235239 2.625,10.9224158 2.625,10.5053181 C2.625,10.0882204 2.205,9.77539713 1.89,9.77539713 L1.89,9.77539713 Z" id="Shape"></path>
                    <path d="M41.58,49.8167754 C40.635,49.8167754 39.795,49.0868544 39.795,48.0441102 C39.795,47.001366 40.53,46.271445 41.58,46.271445 C42.63,46.271445 43.365,47.001366 43.365,48.0441102 C43.365,49.0868544 42.525,49.8167754 41.58,49.8167754 L41.58,49.8167754 Z M41.58,47.4184637 C41.16,47.4184637 40.845,47.7312869 40.845,48.1483846 C40.845,48.5654823 41.16,48.8783056 41.58,48.8783056 C42,48.8783056 42.315,48.5654823 42.315,48.1483846 C42.315,47.7312869 42,47.4184637 41.58,47.4184637 L41.58,47.4184637 Z" id="Shape"></path>
                    <path d="M24.465,52.8407336 C23.52,52.8407336 22.68,52.1108127 22.68,51.0680685 C22.68,50.0253242 23.415,49.2954033 24.465,49.2954033 C25.41,49.2954033 26.25,50.0253242 26.25,51.0680685 C26.25,52.1108127 25.41,52.8407336 24.465,52.8407336 L24.465,52.8407336 Z M24.465,50.4424219 C24.045,50.4424219 23.73,50.7552452 23.73,51.1723429 C23.73,51.5894406 24.045,51.9022638 24.465,51.9022638 C24.885,51.9022638 25.2,51.5894406 25.2,51.1723429 C25.2,50.7552452 24.885,50.4424219 24.465,50.4424219 L24.465,50.4424219 Z" id="Shape"></path>
                    <path d="M61.11,23.7481697 C60.165,23.7481697 59.325,23.0182488 59.325,21.9755046 C59.325,21.0370348 60.06,20.2028394 61.11,20.2028394 C62.055,20.2028394 62.895,20.9327603 62.895,21.9755046 C62.895,22.9139744 62.16,23.7481697 61.11,23.7481697 L61.11,23.7481697 Z M61.11,21.349858 C60.69,21.349858 60.375,21.6626813 60.375,22.079779 C60.375,22.4968767 60.69,22.8096999 61.11,22.8096999 C61.53,22.8096999 61.845,22.4968767 61.845,22.079779 C61.845,21.6626813 61.53,21.349858 61.11,21.349858 L61.11,21.349858 Z" id="Shape"></path>
                    <path d="M25.725,26.772128 C25.935,26.9806768 24.99,28.1276955 25.2,28.4405188 C25.41,28.753342 26.88,28.4405188 26.88,28.753342 C26.985,29.0661653 25.515,29.5875374 25.515,29.9003607 C25.515,30.2131839 26.88,30.7345561 26.88,31.0473793 C26.775,31.3602026 25.305,31.0473793 25.2,31.3602026 C25.095,31.6730259 26.04,32.7157701 25.725,33.0285934 C25.515,33.2371422 24.36,32.2986724 24.045,32.5072212 C23.73,32.7157701 24.045,34.175612 23.73,34.175612 C23.415,34.2798864 22.89,32.8200445 22.575,32.8200445 C22.26,32.8200445 21.735,34.175612 21.42,34.175612 C21.105,34.0713376 21.42,32.6114957 21.105,32.5072212 C20.79,32.4029468 19.74,33.3414166 19.425,33.0285934 C19.215,32.8200445 20.16,31.6730259 19.95,31.3602026 C19.74,31.0473793 18.27,31.3602026 18.27,31.0473793 C18.165,30.7345561 19.635,30.2131839 19.635,29.9003607 C19.635,29.5875374 18.27,29.0661653 18.27,28.753342 C18.375,28.4405188 19.845,28.753342 19.95,28.4405188 C20.055,28.1276955 19.11,27.0849513 19.425,26.772128 C19.635,26.5635792 20.79,27.502049 21.105,27.2935001 C21.42,27.0849513 21.105,25.6251094 21.42,25.6251094 C21.735,25.5208349 22.26,26.9806768 22.575,26.9806768 C22.89,26.9806768 23.415,25.6251094 23.73,25.6251094 C24.045,25.7293838 23.73,27.1892257 24.045,27.2935001 C24.36,27.502049 25.515,26.5635792 25.725,26.772128 L25.725,26.772128 Z" id="Shape"></path>
                    <polygon id="Shape" points="28.14 19.5771928 34.335 3.6232062 35.385 4.04030389"></polygon>
                    <polygon id="Shape" points="15.96 22.6011511 5.145 13.3207275 5.88 12.4865321"></polygon>
                </g>
            </g>
        </g>
    </g>
</svg>