<?xml version="1.0" encoding="UTF-8" standalone="no"?>
<svg width="91px" height="125px" viewBox="0 0 91 125" version="1.1" xmlns="http://www.w3.org/2000/svg" xmlns:xlink="http://www.w3.org/1999/xlink">
    <!-- Generator: Sketch 40.3 (33839) - http://www.bohemiancoding.com/sketch -->
    <title>98219</title>
    <desc>Created with Sketch.</desc>
    <defs></defs>
    <g id="NEW" stroke="none" stroke-width="1" fill="none" fill-rule="evenodd" opacity="0.5">
        <g id="F_LOT_CRE=0" transform="translate(-1012.000000, -1273.000000)" fill="#CFCFCF">
            <g id="98219" transform="translate(1012.000000, 1273.000000)">
                <g id="Group">
                    <polygon id="Shape" points="34.58 69.0737472 32.76 44.3691965 36.0966667 68.9221856"></polygon>
                    <polygon id="Shape" points="33.5183333 43.4598266 83.72 32.092702 84.0233333 33.6083186"></polygon>
                    <polygon id="Shape" points="32.76 43.4598266 23.205 9.20689126 24.57 8.90376794"></polygon>
                    <polygon id="Shape" points="34.4283333 42.5504566 60.3633333 7.69127465 61.5766667 8.60064462"></polygon>
                    <polygon id="Shape" points="33.5183333 43.4598266 37.31 16.7849743 38.675 17.0880976"></polygon>
                    <path d="M6.21833333,124.696877 C6.21833333,124.696877 6.21833333,123.484383 6.37,121.514082 C6.37,120.45315 6.37,119.240657 6.52166667,117.876602 C6.67333333,116.512547 6.825,114.845369 6.97666667,113.17819 C7.12833333,111.511012 7.43166667,109.692272 7.735,107.721971 C8.03833333,105.751669 8.49333333,103.781368 8.79666667,101.659504 C9.25166667,99.537641 9.70666667,97.4157778 10.3133333,95.1423529 C10.7683333,92.8689279 11.5266667,90.7470647 12.1333333,88.4736398 C12.74,86.2002149 13.4983333,84.0783516 14.2566667,81.9564884 C15.015,79.8346251 15.7733333,77.7127619 16.5316667,75.7424603 C18.0483333,71.6502954 19.565,68.0128156 21.0816667,64.8300207 C23.8116667,58.464431 26.0866667,54.5238278 26.0866667,54.5238278 L27.4516667,55.2816361 C27.4516667,55.2816361 26.845,56.1910061 25.935,58.009746 C25.025,59.8284859 23.66,62.2534725 22.295,65.4362674 C20.7783333,68.4675006 19.2616667,72.2565421 17.5933333,76.1971453 C16.835,78.1674469 16.0766667,80.2893101 15.1666667,82.4111734 C14.4083333,84.5330366 13.65,86.6548999 12.8916667,88.9283248 C12.285,91.050188 11.5266667,93.3236129 10.92,95.4454762 C10.3133333,97.5673394 9.70666667,99.6892027 9.25166667,101.811066 C8.79666667,103.932929 8.34166667,105.903231 8.03833333,107.873532 C7.735,109.843834 7.28,111.662574 7.12833333,113.329752 C6.97666667,114.99693 6.825,116.664109 6.67333333,118.028164 C6.52166667,119.392219 6.52166667,120.604712 6.52166667,121.665643 C6.21833333,123.484383 6.21833333,124.696877 6.21833333,124.696877 L6.21833333,124.696877 Z" id="Shape"></path>
                    <polygon id="Shape" points="32.76 43.4598266 55.8133333 64.5268974 54.7516667 65.587829"></polygon>
                    <polygon id="Shape" points="32.76 43.4598266 5.15666667 35.2754969 5.61166667 33.9114419"></polygon>
                    <path d="M65.3683333,5.41784974 C64.0033333,5.41784974 62.79,4.35691812 62.79,2.84130151 C62.79,1.47724657 63.8516667,0.264753281 65.3683333,0.264753281 C66.7333333,0.264753281 67.9466667,1.32568491 67.9466667,2.84130151 C67.9466667,4.20535646 66.7333333,5.41784974 65.3683333,5.41784974 L65.3683333,5.41784974 Z M65.3683333,1.78036989 C64.7616667,1.78036989 64.3066667,2.23505487 64.3066667,2.84130151 C64.3066667,3.44754815 64.7616667,3.90223314 65.3683333,3.90223314 C65.975,3.90223314 66.43,3.44754815 66.43,2.84130151 C66.43,2.23505487 65.975,1.78036989 65.3683333,1.78036989 L65.3683333,1.78036989 Z" id="Shape"></path>
                    <path d="M39.7366667,13.2990561 C38.3716667,13.2990561 37.1583333,12.2381245 37.1583333,10.7225079 C37.1583333,9.35845292 38.22,8.14595963 39.7366667,8.14595963 C41.2533333,8.14595963 42.315,9.20689126 42.315,10.7225079 C42.315,12.2381245 41.1016667,13.2990561 39.7366667,13.2990561 L39.7366667,13.2990561 Z M39.7366667,9.8131379 C39.13,9.8131379 38.675,10.2678229 38.675,10.8740695 C38.675,11.4803162 39.13,11.9350012 39.7366667,11.9350012 C40.3433333,11.9350012 40.7983333,11.4803162 40.7983333,10.8740695 C40.7983333,10.2678229 40.3433333,9.8131379 39.7366667,9.8131379 L39.7366667,9.8131379 Z" id="Shape"></path>
                    <path d="M2.73,17.6943443 C1.365,17.6943443 0.151666667,16.6334126 0.151666667,15.117796 C0.151666667,13.7537411 1.21333333,12.5412478 2.73,12.5412478 C4.095,12.5412478 5.30833333,13.6021794 5.30833333,15.117796 C5.15666667,16.6334126 4.095,17.6943443 2.73,17.6943443 L2.73,17.6943443 Z M2.73,14.2084261 C2.12333333,14.2084261 1.66833333,14.663111 1.66833333,15.2693577 C1.66833333,15.8756043 2.12333333,16.3302893 2.73,16.3302893 C3.33666667,16.3302893 3.79166667,15.8756043 3.79166667,15.2693577 C3.79166667,14.663111 3.185,14.2084261 2.73,14.2084261 L2.73,14.2084261 Z" id="Shape"></path>
                    <path d="M60.06,72.4081038 C58.695,72.4081038 57.4816667,71.3471721 57.4816667,69.8315555 C57.4816667,68.3159389 58.5433333,67.2550073 60.06,67.2550073 C61.5766667,67.2550073 62.6383333,68.3159389 62.6383333,69.8315555 C62.6383333,71.3471721 61.425,72.4081038 60.06,72.4081038 L60.06,72.4081038 Z M60.06,68.9221856 C59.4533333,68.9221856 58.9983333,69.3768705 58.9983333,69.9831172 C58.9983333,70.5893638 59.4533333,71.0440488 60.06,71.0440488 C60.6666667,71.0440488 61.1216667,70.5893638 61.1216667,69.9831172 C61.1216667,69.3768705 60.6666667,68.9221856 60.06,68.9221856 L60.06,68.9221856 Z" id="Shape"></path>
                    <path d="M35.3383333,76.8033919 C33.9733333,76.8033919 32.76,75.7424603 32.76,74.2268437 C32.76,72.7112271 33.8216667,71.6502954 35.3383333,71.6502954 C36.7033333,71.6502954 37.9166667,72.7112271 37.9166667,74.2268437 C37.9166667,75.7424603 36.7033333,76.8033919 35.3383333,76.8033919 L35.3383333,76.8033919 Z M35.3383333,73.3174737 C34.7316667,73.3174737 34.2766667,73.7721587 34.2766667,74.3784053 C34.2766667,74.984652 34.7316667,75.439337 35.3383333,75.439337 C35.945,75.439337 36.4,74.984652 36.4,74.3784053 C36.4,73.7721587 35.945,73.3174737 35.3383333,73.3174737 L35.3383333,73.3174737 Z" id="Shape"></path>
                    <path d="M88.27,34.5176886 C86.905,34.5176886 85.6916667,33.456757 85.6916667,31.9411404 C85.6916667,30.5770854 86.7533333,29.3645921 88.27,29.3645921 C89.635,29.3645921 90.8483333,30.4255238 90.8483333,31.9411404 C90.8483333,33.3051953 89.7866667,34.5176886 88.27,34.5176886 L88.27,34.5176886 Z M88.27,31.0317704 C87.6633333,31.0317704 87.2083333,31.4864554 87.2083333,32.092702 C87.2083333,32.6989487 87.6633333,33.1536336 88.27,33.1536336 C88.8766667,33.1536336 89.3316667,32.6989487 89.3316667,32.092702 C89.3316667,31.4864554 88.8766667,31.0317704 88.27,31.0317704 L88.27,31.0317704 Z" id="Shape"></path>
                    <path d="M37.1583333,38.9129767 C37.4616667,39.2161001 36.0966667,40.8832783 36.4,41.3379633 C36.7033333,41.7926483 38.8266667,41.3379633 38.8266667,41.7926483 C38.9783333,42.2473333 36.855,43.0051416 36.855,43.4598266 C36.855,43.9145115 38.8266667,44.6723199 38.8266667,45.1270048 C38.675,45.5816898 36.5516667,45.1270048 36.4,45.5816898 C36.2483333,46.0363748 37.6133333,47.5519914 37.1583333,48.0066764 C36.855,48.3097997 35.1866667,46.9457448 34.7316667,47.2488681 C34.2766667,47.5519914 34.7316667,49.6738547 34.2766667,49.6738547 C33.8216667,49.8254163 33.0633333,47.7035531 32.6083333,47.7035531 C32.1533333,47.7035531 31.395,49.6738547 30.94,49.6738547 C30.485,49.522293 30.94,47.4004297 30.485,47.2488681 C30.03,47.0973064 28.5133333,48.4613614 28.0583333,48.0066764 C27.755,47.7035531 29.12,46.0363748 28.8166667,45.5816898 C28.5133333,45.1270048 26.39,45.5816898 26.39,45.1270048 C26.2383333,44.6723199 28.3616667,43.9145115 28.3616667,43.4598266 C28.3616667,43.0051416 26.39,42.2473333 26.39,41.7926483 C26.5416667,41.3379633 28.665,41.7926483 28.8166667,41.3379633 C28.9683333,40.8832783 27.6033333,39.3676617 28.0583333,38.9129767 C28.3616667,38.6098534 30.03,39.9739084 30.485,39.6707851 C30.94,39.3676617 30.485,37.2457985 30.94,37.2457985 C31.395,37.0942368 32.1533333,39.2161001 32.6083333,39.2161001 C33.0633333,39.2161001 33.8216667,37.2457985 34.2766667,37.2457985 C34.7316667,37.3973601 34.2766667,39.5192234 34.7316667,39.6707851 C35.1866667,39.9739084 36.855,38.6098534 37.1583333,38.9129767 L37.1583333,38.9129767 Z" id="Shape"></path>
                    <polygon id="Shape" points="40.6466667 28.4552222 49.595 5.26628808 51.1116667 5.87253472"></polygon>
                    <polygon id="Shape" points="23.0533333 32.8505103 7.43166667 19.3615225 8.49333333 18.1490292"></polygon>
                </g>
            </g>
        </g>
    </g>
</svg>