<?xml version="1.0" encoding="UTF-8" standalone="no"?>
<svg width="547px" height="653px" viewBox="0 0 547 653" version="1.1" xmlns="http://www.w3.org/2000/svg" xmlns:xlink="http://www.w3.org/1999/xlink">
    <!-- Generator: Sketch 40.3 (33839) - http://www.bohemiancoding.com/sketch -->
    <title>LOGO</title>
    <desc>Created with Sketch.</desc>
    <defs>
        <linearGradient x1="33.4384249%" y1="86.3998131%" x2="103.598073%" y2="-22.7432484%" id="linearGradient-1">
            <stop stop-color="#FBB800" offset="0%"></stop>
            <stop stop-color="#FF8F00" offset="100%"></stop>
        </linearGradient>
        <path d="M275.161383,0 C79.4426601,0 8.33621765,69.74 8.33621765,69.74 C4.11207255,96.5088889 2,124.686667 2,152.864444 C2,360.675556 112.531797,542.422222 275.161383,632.591111 C437.790969,541.717778 548.322766,360.675556 548.322766,152.16 C548.322766,123.982222 546.210693,96.5088889 541.986548,69.0355556 C541.986548,69.0355556 470.880106,0 275.161383,0 Z" id="path-2"></path>
        <filter x="-50%" y="-50%" width="200%" height="200%" filterUnits="objectBoundingBox" id="filter-3">
            <feOffset dx="0" dy="20" in="SourceAlpha" result="shadowOffsetOuter1"></feOffset>
            <feColorMatrix values="0 0 0 0 0   0 0 0 0 0   0 0 0 0 0  0 0 0 0.45 0" type="matrix" in="shadowOffsetOuter1"></feColorMatrix>
        </filter>
        <linearGradient x1="0%" y1="0%" x2="128.782101%" y2="127.002009%" id="linearGradient-4">
            <stop stop-color="#FBB800" offset="0%"></stop>
            <stop stop-color="#FF8F00" offset="100%"></stop>
        </linearGradient>
        <path d="M262.511753,197.065746 C262.140134,197.366335 261.769545,197.666924 261.397927,197.967513 C264.471758,202.104729 266.881617,207.09533 270.803686,210.138279 C274.762813,213.209022 280.220768,214.346525 285.191811,216.402265 C285.84343,213.622846 286.228431,209.486659 282.633716,207.331066 C276.190611,203.468703 269.246182,200.442225 262.511753,197.065746 M307.805986,239.77306 C301.316557,242.319831 295.110218,244.754396 289.989911,246.763813 C289.545204,242.93748 290.265794,238.968058 288.611525,236.879376 C284.255043,231.376127 278.185616,232.233629 271.913394,235.070695 C270.915892,233.200249 270.197361,231.30098 268.999122,229.780534 C268.031473,228.552443 266.416322,226.937292 265.217054,227.037145 C263.94161,227.144204 262.05984,228.910679 261.787045,230.230389 C261.224985,232.940837 260.932631,236.002315 261.625427,238.631439 C266.395733,256.739868 285.232987,273.521381 309.791726,264.7518 C322.472052,260.224435 334.842525,254.829274 347.503292,250.239116 C362.455536,244.816161 373.184092,245.479104 386.702362,251.540296 C378.354841,251.695737 368.633052,248.402641 360.773473,254.991922 C367.927903,259.896052 374.469831,264.894888 381.496614,269.078428 C392.15517,275.424768 403.368581,275.306385 414.146549,269.433576 C421.455391,265.450772 423.954809,257.114574 421.677745,247.738668 C426.372904,258.419872 422.025687,268.492691 410.374775,273.923882 C393.384291,281.843167 376.77469,282.066549 360.290677,273.073585 C349.191532,267.01857 337.806209,269.70843 326.827504,272.325201 C304.414065,277.665803 284.241661,273.551234 265.673085,260.3387 C264.15264,259.256786 262.714548,257.987518 261.488515,256.585455 C260.371601,255.310011 259.595422,253.735007 258.243801,252.722063 C256.449532,266.046803 273.617075,277.511391 297.995667,280.234192 L297.995667,285.647882 C301.451411,284.445526 304.357447,283.435671 306.684953,282.625521 C300.848174,293.723638 276.859731,304.672489 259.989688,297.057911 C262.074252,294.805552 265.57632,292.602606 266.591322,289.566863 C268.239415,284.643174 263.831462,282.546257 259.889835,280.718017 C260.891455,279.624779 261.833369,278.595364 262.808224,277.531979 C262.363517,276.898889 262.153517,276.230799 261.789104,276.133005 C248.655836,272.597996 235.573008,268.827251 222.318269,265.819302 C218.752377,265.010183 214.188983,265.62989 210.950446,267.287247 C208.320292,268.632692 206.986171,272.512555 205.45955,274.71756 C201.690863,265.709155 203.236014,262.376941 216.225165,254.472068 C213.35104,250.067204 210.469709,245.653075 207.58632,241.235858 C212.925892,242.79542 217.806346,244.222189 222.686799,245.647928 C223.086212,245.128073 223.485625,244.60719 223.884008,244.086306 C223.168565,242.139683 222.842241,239.91306 221.676944,238.289674 C210.604563,222.858752 194.998641,217.011679 178.79257,231.978334 C159.722669,249.589555 156.704426,271.311228 169.096516,296.358939 C169.982842,298.15012 170.855785,299.947477 170.989609,302.815426 C166.095773,300.360272 161.201937,297.906148 155.622511,295.107171 C156.347219,297.579824 151.061896,325.708764 154.947599,352.049828 C160.310835,388.407047 177.474062,432.831472 177.474062,432.831472 C177.474062,432.831472 144.304236,388.620201 124.672463,347.360754 C111.975649,320.67628 109.958245,292.432077 109.3421,287.593475 C109.021952,285.081704 108.488715,282.596698 108.046067,280.057133 C89.8419034,286.322148 70.8625905,307.674261 66.0387548,333.000943 C65.1061054,295.523054 80.9261455,258.082224 122.254044,223.349783 C106.962094,224.838316 92.3814686,228.900385 78.8611402,219.846686 C105.401502,226.78185 122.600957,209.264306 142.0013,195.956037 C117.924328,197.6206 101.700757,188.41043 95.7929479,163.128013 C100.632225,171.758623 105.814297,178.458051 114.648731,181.626589 C121.174189,183.966448 127.318763,183.143946 133.645544,181.214823 C146.992931,177.147607 160.297082,172.88892 173.795793,169.391999 C179.07463,168.024937 184.829056,168.49435 191.081719,167.578171 C146.457635,152.42828 128.043471,123.278353 141.520564,77 C139.182764,87.6750271 140.657915,98.0360828 144.154835,108.18405 C148.96323,122.13982 159.043255,129.930428 173.104026,133.65485 C190.027599,138.137949 206.927494,142.815608 223.539154,148.310622 C229.979171,150.44048 235.602861,155.036816 242.14376,158.82609 C240.45655,148.660623 236.811394,138.614568 240.706698,128.460425 C243.545823,134.432057 246.411712,140.56222 249.362014,146.650177 C256.03159,160.410359 266.800293,170.065236 280.082827,177.184666 C280.986653,177.668491 281.821508,178.296433 282.754157,178.710258 C296.051103,184.603655 303.707887,194.970887 307.123484,208.897834 C308.999077,216.545354 313.643794,221.623455 321.356167,224.293756 C326.110003,225.939789 330.428396,228.883915 334.875466,231.366862 C338.820182,233.569809 339.334889,236.76717 336.7665,240.294973 C333.23355,245.144544 328.537362,248.36867 322.689259,250.037351 C319.521751,250.941176 316.313066,252.05912 313.477029,253.69486 C306.766277,257.563399 299.954642,260.748407 290.58903,260.267671 C299.444053,255.18957 307.572308,251.315883 307.805986,239.77306 Z" id="path-5"></path>
        <filter x="-50%" y="-50%" width="200%" height="200%" filterUnits="objectBoundingBox" id="filter-6">
            <feOffset dx="0" dy="14" in="SourceAlpha" result="shadowOffsetInner1"></feOffset>
            <feComposite in="shadowOffsetInner1" in2="SourceAlpha" operator="arithmetic" k2="-1" k3="1" result="shadowInnerInner1"></feComposite>
            <feColorMatrix values="0 0 0 0 0   0 0 0 0 0   0 0 0 0 0  0 0 0 0.45 0" type="matrix" in="shadowInnerInner1"></feColorMatrix>
        </filter>
    </defs>
    <g id="Page-1" stroke="none" stroke-width="1" fill="none" fill-rule="evenodd">
        <g id="LOGO" transform="translate(-2.000000, 0.000000)">
            <g id="Shape">
                <use fill="black" fill-opacity="1" filter="url(#filter-3)" xlink:href="#path-2"></use>
                <use fill="url(#linearGradient-1)" fill-rule="evenodd" xlink:href="#path-2"></use>
            </g>
            <path d="M275.161383,0 C79.4426601,0 8.33621765,69.74 8.33621765,69.74 C4.11207255,96.5088889 2,124.686667 2,152.864444 C2,360.675556 112.531797,542.422222 275.161383,632.591111 C275.161383,632.591111 275.161383,0 275.161383,0 Z" id="Shape" fill="url(#linearGradient-4)"></path>
            <g id="Fill-4" transform="translate(244.768902, 254.915736) scale(-1, 1) rotate(-30.000000) translate(-244.768902, -254.915736) ">
                <use fill="#20252B" fill-rule="evenodd" xlink:href="#path-5"></use>
                <use fill="black" fill-opacity="1" filter="url(#filter-6)" xlink:href="#path-5"></use>
            </g>
        </g>
    </g>
</svg>