<?xml version="1.0" encoding="UTF-8" standalone="no"?>
<svg width="469px" height="256px" viewBox="0 0 469 256" version="1.1" xmlns="http://www.w3.org/2000/svg" xmlns:xlink="http://www.w3.org/1999/xlink">
    <!-- Generator: Sketch 40.3 (33839) - http://www.bohemiancoding.com/sketch -->
    <title>LOGO</title>
    <desc>Created with Sketch.</desc>
    <defs>
        <path d="M235.259864,255.679398 C285.196969,252.682716 327.407603,220.955661 345.652196,176.77081 L332.216434,176.77081 C314.813815,214.004488 278.259011,240.4573 235.259864,243.395581 L235.259864,255.679398 Z M217.793123,255.547741 C168.707679,251.854252 127.354787,220.38025 109.347791,176.77081 L122.307984,176.77081 C139.511755,213.579042 175.43253,239.851372 217.793123,243.285668 L217.793123,255.547741 Z M235.259864,8.47100168e-14 C285.516979,3.01588545 327.948279,35.1315465 345.999987,79.759562 L332.826706,79.759564 C315.678827,41.8282923 278.768297,14.7803644 235.259864,11.8072818 L235.259864,2.48689958e-14 Z M217.793123,0.131657326 C168.388977,3.84912747 126.81812,35.7090286 109,79.759562 L121.697712,79.759564 C138.651947,42.256636 174.925008,15.3926368 217.793123,11.9171949 L217.793123,0.131657326 Z" id="path-1"></path>
        <mask id="mask-2" maskContentUnits="userSpaceOnUse" maskUnits="objectBoundingBox" x="0" y="0" width="237" height="255.679398" fill="white">
            <use xlink:href="#path-1"></use>
        </mask>
    </defs>
    <g id="Page-1" stroke="none" stroke-width="1" fill="none" fill-rule="evenodd">
        <g id="LOGO" transform="translate(-265.000000, -372.000000)">
            <g transform="translate(265.000000, 372.000000)">
                <path d="M0,95.3 L21.4,95.3 C26.06669,95.3 29.8833185,96.0166595 32.85,97.45 C35.8166815,98.8833405 38.166658,100.649989 39.9,102.75 C41.633342,104.85001 42.83333,107.099988 43.5,109.5 C44.16667,111.900012 44.5,114.09999 44.5,116.1 C44.5,119.833352 43.83334,123.03332 42.5,125.7 C41.16666,128.36668 39.433344,130.549991 37.3,132.25 C35.166656,133.950008 32.76668,135.199996 30.1,136 C27.43332,136.800004 24.800013,137.2 22.2,137.2 L12.1,137.2 L12.1,162 L0,162 L0,95.3 Z M21.2,126.6 C24.400016,126.6 26.9499905,125.666676 28.85,123.8 C30.7500095,121.933324 31.7,119.500015 31.7,116.5 C31.7,113.366651 30.70001,110.816676 28.7,108.85 C26.69999,106.883323 24.200015,105.9 21.2,105.9 L12.1,105.9 L12.1,126.6 L21.2,126.6 Z M103.8,95.3 L116.8,95.3 L91.2,147.7 C88.733321,152.700025 85.966682,156.616652 82.9,159.45 C79.833318,162.283347 76.033356,163.7 71.5,163.7 C68.899987,163.7 66.500011,163.266671 64.3,162.4 C62.099989,161.533329 60.100009,160.533339 58.3,159.4 L63.5,150.1 C64.433338,150.76667 65.5833265,151.38333 66.95,151.95 C68.3166735,152.516669 69.699993,152.8 71.1,152.8 C73.10001,152.8 74.8499925,152.100007 76.35,150.7 C77.8500075,149.299993 79.333326,147.133348 80.8,144.2 L55.8,95.3 L69.4,95.3 L87,131.5 L103.8,95.3 Z M177.7,95.3 L177.7,162 L165.1,162 L165.1,106.5 L145.2,106.5 C144.733331,115.700046 143.950006,123.783298 142.85,130.75 C141.749995,137.716701 140.100011,143.53331 137.9,148.2 C135.699989,152.86669 132.866684,156.383321 129.4,158.75 C125.933316,161.116678 121.600026,162.3 116.4,162.3 L114.8,162.3 L114.8,151 C118.000016,151 120.716656,150.066676 122.95,148.2 C125.183345,146.333324 127.033326,143.233355 128.5,138.9 C129.966674,134.566645 131.099996,128.850035 131.9,121.75 C132.700004,114.649964 133.266665,105.833386 133.6,95.3 L177.7,95.3 Z M199.7,95.3 L242.9,95.3 L242.9,106.4 L212.3,106.4 L212.3,122.1 L234.8,122.1 L234.8,133.3 L212.3,133.3 L212.3,150.7 L245.2,150.7 L245.2,162 L199.7,162 L199.7,95.3 Z M283.1,106.4 L260.5,106.4 L260.5,95.3 L318.3,95.3 L318.3,106.4 L295.7,106.4 L295.7,162 L283.1,162 L283.1,106.4 Z M348.9,162 L336.3,162 L336.3,95.3 L348.9,95.3 L348.9,122 L354.7,122 C357.300013,122 359.366659,121.416672 360.9,120.25 C362.433341,119.083327 363.86666,117.366678 365.2,115.1 L376.6,95.3 L390.4,95.3 L377.2,117.8 C375.666659,120.333346 374.066675,122.333326 372.4,123.8 C370.733325,125.266674 368.833344,126.433329 366.7,127.3 C368.100007,127.766669 369.349994,128.28333 370.45,128.85 C371.550005,129.416669 372.533329,130.099996 373.4,130.9 C374.266671,131.700004 375.083329,132.616661 375.85,133.65 C376.61667,134.683338 377.399996,135.86666 378.2,137.2 L393.2,162 L378.3,162 L365.8,140.7 C365.066663,139.433327 364.350003,138.316671 363.65,137.35 C362.949996,136.383328 362.200004,135.600003 361.4,135 C360.599996,134.399997 359.700005,133.950001 358.7,133.65 C357.699995,133.349998 356.566673,133.2 355.3,133.2 L348.9,133.2 L348.9,162 Z M429.8,95.3 L442.8,95.3 L468.1,162 L454.1,162 L448.3,145.1 L423.5,145.1 L417.7,162 L404.5,162 L429.8,95.3 Z M444.7,134.7 L435.9,108.8 L427,134.7 L444.7,134.7 Z" id="РУЛЕТКА" fill="#F39C26"></path>
                <use id="Combined-Shape" stroke="#F39C26" mask="url(#mask-2)" stroke-width="100" xlink:href="#path-1"></use>
                <path d="M174.105608,214.697625 L168,214.697625 L168,187.727821 L174.105608,187.727821 L174.105608,198.07905 L175.884725,198.07905 C176.909071,198.07905 177.731231,197.836446 178.351229,197.351229 C178.971228,196.866013 179.537305,196.151678 180.049478,195.208201 L184.012058,187.727821 L190.764618,187.727821 L185.993348,196.461671 C185.373349,197.620798 184.692709,198.517087 183.951406,199.150564 C183.210103,199.784041 182.381205,200.289467 181.464685,200.666857 C182.650769,201.044248 183.594231,201.563152 184.295099,202.223585 C184.995967,202.884019 185.669869,203.780308 186.316824,204.912479 L191.937218,214.697625 L184.618575,214.697625 L180.25165,206.691596 C179.712521,205.667251 179.166661,204.899003 178.614054,204.386831 C178.061446,203.874658 177.272981,203.618575 176.248636,203.618575 L174.105608,203.618575 L174.105608,214.697625 Z M220.68614,209.724183 C220.120054,210.505921 219.432675,211.240473 218.623981,211.927863 C217.815287,212.615253 216.918998,213.215025 215.935087,213.727198 C214.951177,214.23937 213.886412,214.643711 212.740763,214.940232 C211.595113,215.236753 210.402308,215.385012 209.16231,215.385012 C207.113619,215.385012 205.240173,215.034583 203.541916,214.333715 C201.843659,213.632847 200.381293,212.65569 199.154774,211.402214 C197.928255,210.148739 196.978054,208.666156 196.304143,206.954421 C195.630231,205.242685 195.293281,203.3625 195.293281,201.313809 C195.293281,199.319031 195.630231,197.452324 196.304143,195.713632 C196.978054,193.974941 197.928255,192.465402 199.154774,191.18497 C200.381293,189.904538 201.850398,188.893686 203.562134,188.152383 C205.273869,187.41108 207.167532,187.040434 209.243179,187.040434 C211.75013,187.040434 213.94031,187.498687 215.813784,188.415207 C217.687258,189.331727 219.24397,190.652574 220.483968,192.377787 L216.319215,196.380802 C215.510521,195.24863 214.553581,194.338863 213.448366,193.651474 C212.343151,192.964084 211.022305,192.620394 209.485786,192.620394 C208.272746,192.620394 207.181025,192.842782 206.210593,193.287563 C205.24016,193.732345 204.418,194.345595 203.744089,195.127332 C203.070177,195.90907 202.551273,196.818837 202.187361,197.85666 C201.823449,198.894484 201.641495,199.992944 201.641495,201.152071 C201.641495,202.338156 201.823449,203.443354 202.187361,204.467699 C202.551273,205.492045 203.070177,206.381595 203.744089,207.136376 C204.418,207.891157 205.226682,208.48419 206.170158,208.915493 C207.113634,209.346797 208.178399,209.562445 209.364483,209.562445 C210.334916,209.562445 211.177292,209.46136 211.891639,209.259186 C212.605985,209.057013 213.239452,208.787452 213.79206,208.450497 C214.344667,208.113541 214.836615,207.722678 215.267918,207.277897 C215.699222,206.833115 216.117041,206.381601 216.521388,205.923341 L220.68614,209.724183 Z M237.668626,187.727821 L255.783277,187.727821 L255.783277,193.267346 L243.774234,193.267346 L243.774234,214.697625 L237.668626,214.697625 L237.668626,187.727821 Z M274.019232,215.385012 C272.024454,215.385012 270.171225,215.021105 268.45949,214.29328 C266.747755,213.565456 265.265171,212.568082 264.011696,211.301128 C262.758221,210.034175 261.774324,208.531374 261.059978,206.792683 C260.345632,205.053991 259.988464,203.187284 259.988464,201.192506 C259.988464,199.170771 260.345632,197.297325 261.059978,195.572112 C261.774324,193.846898 262.758221,192.350837 264.011696,191.083883 C265.265171,189.81693 266.747755,188.819556 268.45949,188.091731 C270.171225,187.363907 272.024454,187 274.019232,187 C276.01401,187 277.867239,187.363907 279.578974,188.091731 C281.29071,188.819556 282.773293,189.81693 284.026768,191.083883 C285.280244,192.350837 286.26414,193.846898 286.978486,195.572112 C287.692832,197.297325 288.05,199.170771 288.05,201.192506 C288.05,203.187284 287.692832,205.053991 286.978486,206.792683 C286.26414,208.531374 285.280244,210.034175 284.026768,211.301128 C282.773293,212.568082 281.29071,213.565456 279.578974,214.29328 C277.867239,215.021105 276.01401,215.385012 274.019232,215.385012 L274.019232,215.385012 Z M274.019232,209.643314 C275.205316,209.643314 276.270081,209.414188 277.213557,208.955928 C278.157033,208.497668 278.958976,207.877679 279.619409,207.095941 C280.279842,206.314204 280.785268,205.411176 281.135702,204.386831 C281.486136,203.362485 281.661351,202.270765 281.661351,201.111637 C281.661351,199.952509 281.486136,198.860789 281.135702,197.836443 C280.785268,196.812098 280.279842,195.915809 279.619409,195.14755 C278.958976,194.379291 278.157033,193.772779 277.213557,193.327998 C276.270081,192.883216 275.205316,192.660829 274.019232,192.660829 C272.833148,192.660829 271.761645,192.883216 270.80469,193.327998 C269.847736,193.772779 269.039054,194.379291 268.378621,195.14755 C267.718188,195.915809 267.212761,196.812098 266.862327,197.836443 C266.511893,198.860789 266.336679,199.952509 266.336679,201.111637 C266.336679,202.270765 266.511893,203.362485 266.862327,204.386831 C267.212761,205.411176 267.718188,206.314204 268.378621,207.095941 C269.039054,207.877679 269.847736,208.497668 270.80469,208.955928 C271.761645,209.414188 272.833148,209.643314 274.019232,209.643314 L274.019232,209.643314 Z" id="КС-ГО" fill="#F39C26"></path>
            </g>
        </g>
    </g>
</svg>