<?xml version="1.0" encoding="UTF-8" standalone="no"?>
<svg width="250px" height="250px" viewBox="0 0 250 250" version="1.1" xmlns="http://www.w3.org/2000/svg" xmlns:xlink="http://www.w3.org/1999/xlink">
    <!-- Generator: Sketch 40.3 (33839) - http://www.bohemiancoding.com/sketch -->
    <title>MiniLogo</title>
    <desc>Created with Sketch.</desc>
    <defs>
        <linearGradient x1="100%" y1="0%" x2="0%" y2="100%" id="linearGradient-1">
            <stop stop-color="#F39C26" offset="0%"></stop>
            <stop stop-color="#EE6B2F" offset="26.0289136%"></stop>
            <stop stop-color="#9D52BA" offset="100%"></stop>
        </linearGradient>
        <ellipse id="path-2" cx="125" cy="125" rx="125" ry="125"></ellipse>
    </defs>
    <g id="Page-1" stroke="none" stroke-width="1" fill="none" fill-rule="evenodd">
        <g id="LOGO" transform="translate(-972.000000, -184.000000)">
            <g id="MiniLogo" transform="translate(972.000000, 184.000000)">
                <g id="Oval-3">
                    <g id="Page-1">
                        <g id="LOGO">
                            <g id="Group-2">
                                <g id="Oval-3-Clipped">
                                    <mask id="mask-3" fill="white">
                                        <use xlink:href="#path-2"></use>
                                    </mask>
                                    <g id="path-2"></g>
                                    <g id="Oval-3" mask="url(#mask-3)" stroke="url(#linearGradient-1)" stroke-width="60">
                                        <ellipse id="path-2" cx="125" cy="125" rx="125" ry="125"></ellipse>
                                    </g>
                                </g>
                            </g>
                        </g>
                    </g>
                </g>
                <path d="M85,183.625 L100.375,104 C102.291676,93.99995 106.062472,86.33336 111.6875,81 C117.312528,75.66664 124.45829,73 133.125,73 C136.875019,73 140.291651,73.499995 143.375,74.5 C146.458349,75.500005 149.083323,76.9374906 151.25,78.8125 C153.416678,80.6875094 155.104161,82.9374869 156.3125,85.5625 C157.520839,88.1875131 158.125,91.0833175 158.125,94.25 C158.125,98.7500225 156.916679,102.812482 154.5,106.4375 C152.083321,110.062518 148.291692,112.708325 143.125,114.375 C147.12502,115.958341 150.229156,118.374984 152.4375,121.625 C154.645844,124.875016 155.75,128.83331 155.75,133.5 C155.75,137.50002 154.958341,141.124984 153.375,144.375 C151.791659,147.625016 149.583347,150.437488 146.75,152.8125 C143.916653,155.187512 140.562519,157.020827 136.6875,158.3125 C132.812481,159.604173 128.625022,160.25 124.125,160.25 C120.708316,160.25 117.625014,159.91667 114.875,159.25 C112.124986,158.58333 109.666678,157.750005 107.5,156.75 L102.25,183.625 L85,183.625 Z M124.25,145.75 C129.000024,145.75 132.687487,144.583345 135.3125,142.25 C137.937513,139.916655 139.25,136.791686 139.25,132.875 C139.25,129.624984 138.166678,127.041676 136,125.125 C133.833322,123.208324 130.291691,122.25 125.375,122.25 L122.75,122.25 L125.5,108.125 L128.25,108.125 C132.000019,108.125 135.187487,107.166676 137.8125,105.25 C140.437513,103.333324 141.75,100.37502 141.75,96.375 C141.75,93.374985 140.895842,91.0625081 139.1875,89.4375 C137.479158,87.8124919 135.166681,87 132.25,87 C128.416647,87 125.333345,88.3958194 123,91.1875 C120.666655,93.9791806 118.958339,98.04164 117.875,103.375 L110.25,142.625 C112.083343,143.541671 114.270821,144.291664 116.8125,144.875 C119.354179,145.458336 121.833321,145.75 124.25,145.75 L124.25,145.75 Z" id="β" fill="#A5AAAD" opacity="0.100000001"></path>
            </g>
        </g>
    </g>
</svg>