<?xml version="1.0" encoding="UTF-8" standalone="no"?>
<svg width="773px" height="70px" viewBox="0 0 773 70" version="1.1" xmlns="http://www.w3.org/2000/svg" xmlns:xlink="http://www.w3.org/1999/xlink">
    <!-- Generator: Sketch 40.3 (33839) - http://www.bohemiancoding.com/sketch -->
    <title>LOGO</title>
    <desc>Created with Sketch.</desc>
    <defs></defs>
    <g id="Page-1" stroke="none" stroke-width="1" fill="none" fill-rule="evenodd">
        <g id="Artboard" transform="translate(-393.000000, -808.000000)">
            <g id="LOGO" transform="translate(393.000000, 808.000000)">
                <path d="M180.225255,65.9092971 L168.847303,65.9092971 L168.847303,28.8223864 L148.82732,64.0419234 C148.335142,64.9394254 147.64755,65.6197795 146.764523,66.0830063 C145.881497,66.5462331 144.933344,66.7778431 143.920036,66.7778431 C142.935679,66.7778431 142.016477,66.5462331 141.162402,66.0830063 C140.308328,65.6197795 139.635211,64.9394254 139.143033,64.0419234 L119.036195,28.8223864 L119.036195,65.9092971 L107.745098,65.9092971 L107.745098,8.45498461 C107.745098,7.15215922 108.128702,5.99410958 108.895921,4.98080094 C109.663141,3.9674923 110.669196,3.28713813 111.914118,2.93971803 C112.522104,2.79495965 113.13008,2.74429498 113.738065,2.78772249 C114.34605,2.83115001 114.932313,2.96143059 115.49687,3.17856816 C116.061428,3.39570572 116.575313,3.69969375 117.038539,4.09054137 C117.501766,4.48138899 117.892608,4.95184666 118.211076,5.50192849 L143.920036,50.188616 L169.628995,5.50192849 C170.294883,4.40176482 171.214085,3.62008131 172.386628,3.15685451 C173.559171,2.6936277 174.782361,2.6212496 176.056235,2.93971803 C177.272205,3.28713813 178.271023,3.9674923 179.052718,4.98080094 C179.834413,5.99410958 180.225255,7.15215922 180.225255,8.45498461 L180.225255,65.9092971 Z M254.442504,65.9092971 L243.151407,65.9092971 L243.151407,50.622889 L203.458858,50.622889 L203.458858,65.9092971 L192.167761,65.9092971 L192.167761,34.771926 C192.167761,30.2265129 192.949445,26.0430586 194.512835,22.2214374 C196.076226,18.3998163 198.247569,15.1138504 201.02693,12.3634412 C203.806291,9.61303209 207.092256,7.47064024 210.884926,5.93620145 C214.677595,4.40176265 218.817623,3.63455476 223.305133,3.63455476 L248.753528,3.63455476 C249.535223,3.63455476 250.27348,3.77931097 250.96832,4.06882772 C251.66316,4.35834448 252.271136,4.76366185 252.792266,5.28479201 C253.313397,5.80592217 253.718714,6.41389823 254.008231,7.10873844 C254.297748,7.80357865 254.442504,8.5418353 254.442504,9.32353053 L254.442504,65.9092971 Z M203.458858,39.331792 L243.151407,39.331792 L243.151407,14.9256517 L223.305133,14.9256517 C222.957712,14.9256517 222.226694,14.9763164 221.112054,15.0776472 C219.997415,15.1789781 218.709084,15.4323015 217.247025,15.8376249 C215.784965,16.2429484 214.243312,16.8654001 212.622018,17.7049986 C211.000724,18.5445972 209.509735,19.7026469 208.149006,21.1791823 C206.788278,22.6557178 205.666417,24.5013594 204.783391,26.7161626 C203.900365,28.9309657 203.458858,31.6161933 203.458858,34.771926 L203.458858,39.331792 Z M323.839323,14.9256517 L298.955482,14.9256517 L298.955482,65.9092971 L287.664385,65.9092971 L287.664385,14.9256517 L262.737117,14.9256517 L262.737117,3.63455476 L323.839323,3.63455476 L323.839323,14.9256517 Z M394.365251,24.5665114 C394.365251,27.1432105 394.046788,29.4448342 393.409851,31.4714515 C392.772914,33.4980687 391.911614,35.2858079 390.825927,36.8347225 C389.740239,38.3836371 388.488098,39.7081564 387.069466,40.8083201 C385.650833,41.9084838 384.167082,42.81321 382.618168,43.5225261 C381.069253,44.2318421 379.505886,44.7457267 377.92802,45.0641951 C376.350153,45.3826635 374.866402,45.5418953 373.476722,45.5418953 L397.057744,65.9092971 L379.599971,65.9092971 L356.062376,45.5418953 L347.941472,45.5418953 L347.941472,34.2507984 L373.476722,34.2507984 C374.895354,34.1349917 376.190922,33.8382415 377.363465,33.3605388 C378.536008,32.8828362 379.549301,32.2386711 380.403376,31.4280242 C381.25745,30.6173773 381.916091,29.6402729 382.379318,28.4966817 C382.842544,27.3530905 383.074154,26.0430469 383.074154,24.5665114 L383.074154,17.4444349 C383.074154,16.807498 382.994538,16.3225647 382.835304,15.9896205 C382.67607,15.6566762 382.473411,15.4105906 382.227322,15.2513564 C381.981233,15.0921222 381.720672,14.9980307 381.445631,14.969079 C381.17059,14.9401273 380.917266,14.9256517 380.685653,14.9256517 L343.425033,14.9256517 L343.425033,65.9092971 L332.133936,65.9092971 L332.133936,9.32353053 C332.133936,8.5418353 332.278692,7.80357865 332.568209,7.10873844 C332.857726,6.41389823 333.255805,5.80592217 333.76246,5.28479201 C334.269114,4.76366185 334.869852,4.35834448 335.564693,4.06882772 C336.259533,3.77931097 337.012265,3.63455476 337.822912,3.63455476 L380.685653,3.63455476 C383.204449,3.63455476 385.332365,4.09053681 387.069466,5.00251459 C388.806566,5.91449236 390.217939,7.05806638 391.303627,8.43327097 C392.389315,9.80847555 393.170998,11.2922267 393.648701,12.8845688 C394.126404,14.4769109 394.365251,15.9678999 394.365251,17.3575803 L394.365251,24.5665114 Z M417.077727,65.9092971 L405.78663,65.9092971 L405.78663,3.63455476 L417.077727,3.63455476 L417.077727,65.9092971 Z M458.724504,25.8693303 L477.745659,3.63455476 L493.16235,3.63455476 L466.367708,34.8587805 L492.98864,65.9092971 L477.658805,65.9092971 L458.724504,43.8482308 L439.877057,65.9092971 L424.503795,65.9092971 L451.0813,34.8587805 L424.41694,3.63455476 L439.703348,3.63455476 L458.724504,25.8693303 Z" id="MATRIXCSGO" fill="#64C119"></path>
                <g id="PYRAMID">
                    <rect id="Rectangle" fill="#FFFFFF" x="60.9875295" y="51.0077519" width="22.7081227" height="18.9922481" rx="6"></rect>
                    <rect id="Rectangle" fill="#FFFFFF" x="30.4937647" y="51.0077519" width="22.7081227" height="18.9922481" rx="6"></rect>
                    <rect id="Rectangle" fill="#FFFFFF" x="0" y="51.0077519" width="22.7081227" height="18.9922481" rx="6"></rect>
                    <rect id="Rectangle" fill="#FFFFFF" x="46.0650489" y="25.503876" width="22.7081227" height="18.9922481" rx="6"></rect>
                    <rect id="Rectangle" fill="#64C119" x="30.4937647" y="0" width="22.7081227" height="18.9922481" rx="6"></rect>
                    <rect id="Rectangle" fill="#FFFFFF" x="15.5712841" y="25.503876" width="22.7081227" height="18.9922481" rx="6"></rect>
                </g>
                <g id="CSGO" transform="translate(497.549020, 2.745098)" fill="#FFFFFF">
                    <path d="M275.415398,37.9763675 C275.415398,41.7690369 274.763995,45.2576615 273.461169,48.4423458 C272.158344,51.6270301 270.348891,54.377398 268.032757,56.693532 C265.716623,59.009666 262.973493,60.8118808 259.803285,62.1002304 C256.633076,63.3885799 253.180641,64.032745 249.445875,64.032745 L234.159467,64.032745 C230.4247,64.032745 226.965027,63.3885799 223.780343,62.1002304 C220.595659,60.8118808 217.845291,59.009666 215.529157,56.693532 C213.213023,54.377398 211.396332,51.6270301 210.079031,48.4423458 C208.76173,45.2576615 208.103089,41.7690369 208.103089,37.9763675 L208.103089,26.0772884 C208.103089,22.3135706 208.76173,18.8321838 210.079031,15.6330237 C211.396332,12.4338636 213.213023,9.68349566 215.529157,7.38183747 C217.845291,5.08017927 220.595659,3.27796452 223.780343,1.97513912 C226.965027,0.672313731 230.4247,0.0209108057 234.159467,0.0209108057 L249.445875,0.0209108057 C253.180641,0.0209108057 256.633076,0.672313731 259.803285,1.97513912 C262.973493,3.27796452 265.716623,5.08017927 268.032757,7.38183747 C270.348891,9.68349566 272.158344,12.4338636 273.461169,15.6330237 C274.763995,18.8321838 275.415398,22.3135706 275.415398,26.0772884 L275.415398,37.9763675 Z M264.124301,26.0772884 C264.124301,23.8480094 263.769648,21.8286603 263.060332,20.0191806 C262.351016,18.2097009 261.352198,16.6608095 260.063849,15.3724599 C258.775499,14.0841104 257.226608,13.0852925 255.417128,12.3759765 C253.607648,11.6666605 251.61725,11.3120078 249.445875,11.3120078 L234.159467,11.3120078 C231.959139,11.3120078 229.954266,11.6666605 228.144786,12.3759765 C226.335306,13.0852925 224.779177,14.0841104 223.476352,15.3724599 C222.173526,16.6608095 221.167471,18.2097009 220.458155,20.0191806 C219.748839,21.8286603 219.394186,23.8480094 219.394186,26.0772884 L219.394186,37.9763675 C219.394186,40.2056465 219.748839,42.2249955 220.458155,44.0344752 C221.167471,45.843955 222.173526,47.3928464 223.476352,48.6811959 C224.779177,49.9695455 226.335306,50.9683633 228.144786,51.6776793 C229.954266,52.3869954 231.959139,52.7416481 234.159467,52.7416481 L249.35902,52.7416481 C251.559347,52.7416481 253.564221,52.3869954 255.373701,51.6776793 C257.18318,50.9683633 258.73931,49.9695455 260.042135,48.6811959 C261.34496,47.3928464 262.351016,45.843955 263.060332,44.0344752 C263.769648,42.2249955 264.124301,40.2056465 264.124301,37.9763675 L264.124301,26.0772884 Z" id="Combined-Shape"></path>
                    <path d="M198.28852,57.4752233 C198.28852,58.2858702 198.143764,59.0386025 197.854247,59.7334427 C197.56473,60.4282829 197.166651,61.0290212 196.659996,61.5356755 C196.153342,62.0423298 195.552604,62.4404094 194.857764,62.7299261 C194.162923,63.0194429 193.410191,63.1641991 192.599544,63.1641991 L151.864741,63.1641991 C150.82248,63.1641991 149.70062,63.0411563 148.499125,62.7950671 C147.297631,62.5489778 146.11063,62.1653739 144.938087,61.6442437 C143.765544,61.1231136 142.643684,60.4499972 141.572472,59.6248745 C140.50126,58.7997517 139.553106,57.8009339 138.727984,56.6283911 C137.902861,55.4558482 137.24422,54.0951399 136.752042,52.5462252 C136.259863,50.9973106 136.013778,49.2529983 136.013778,47.3132361 L136.013778,16.7404197 C136.013778,15.6981594 136.13682,14.5762988 136.38291,13.3748043 C136.628999,12.1733098 137.012603,10.9863089 137.533733,9.81376604 C138.054863,8.64122319 138.735217,7.51936259 139.574816,6.44815061 C140.414415,5.37693862 141.42047,4.42878547 142.593013,3.60366272 C143.765556,2.77853997 145.119026,2.11989924 146.653465,1.62772076 C148.187904,1.13554227 149.924978,0.889456724 151.864741,0.889456724 L197.767393,0.889456724 L197.767393,12.1805537 L151.864741,12.1805537 C150.388205,12.1805537 149.259107,12.5713954 148.477412,13.3530907 C147.695716,14.1347859 147.304875,15.2928355 147.304875,16.8272743 L147.304875,47.3132361 C147.304875,48.7608199 147.702954,49.8826804 148.499125,50.6788515 C149.295296,51.4750226 150.417157,51.8731022 151.864741,51.8731022 L186.997423,51.8731022 L186.997423,37.7158037 L156.945734,37.7158037 L156.945734,26.3378521 L192.599544,26.3378521 C193.410191,26.3378521 194.162923,26.4898462 194.857764,26.7938388 C195.552604,27.0978313 196.153342,27.5103865 196.659996,28.0315167 C197.166651,28.5526468 197.56473,29.1533851 197.854247,29.8337495 C198.143764,30.5141138 198.28852,31.2451327 198.28852,32.0268279 L198.28852,57.4752233 Z" id="Path"></path>
                    <path d="M127.4586,44.8378802 C127.4586,47.0671592 127.176326,49.0720327 126.611768,50.8525607 C126.04721,52.6330887 125.301716,54.2036936 124.375262,55.5644223 C123.448809,56.9251511 122.363137,58.0832007 121.118215,59.038606 C119.873293,59.9940113 118.584963,60.7756948 117.253186,61.38368 C115.921409,61.9916652 114.567938,62.4404094 113.192734,62.7299261 C111.817529,63.0194429 110.521961,63.1641991 109.305991,63.1641991 L65.7484129,63.1641991 L65.7484129,51.8731022 L109.305991,51.8731022 C111.477366,51.8731022 113.163776,51.2361749 114.365271,49.9623011 C115.566765,48.6884274 116.167503,46.9803042 116.167503,44.8378802 C116.167503,43.7956199 116.008272,42.8402289 115.689803,41.9716787 C115.371335,41.1031284 114.915353,40.3503962 114.321843,39.7134593 C113.728334,39.0765224 113.004553,38.5843513 112.150479,38.2369312 C111.296404,37.8895111 110.348251,37.7158037 109.305991,37.7158037 L83.3364677,37.7158037 C81.5125122,37.7158037 79.5438278,37.3901022 77.4303555,36.7386895 C75.3168832,36.0872768 73.3554366,35.0377943 71.5459569,33.5902106 C69.7364772,32.1426268 68.2310126,30.2463205 67.0295181,27.9012348 C65.8280236,25.5561491 65.2272853,22.6899762 65.2272853,19.3026302 C65.2272853,15.9152842 65.8280236,13.0563491 67.0295181,10.7257393 C68.2310126,8.39512939 69.7364772,6.49882309 71.5459569,5.03676349 C73.3554366,3.57470388 75.3168832,2.51798358 77.4303555,1.86657088 C79.5438278,1.21515819 81.5125122,0.889456724 83.3364677,0.889456724 L121.769625,0.889456724 L121.769625,12.1805537 L83.3364677,12.1805537 C81.1940437,12.1805537 79.5221096,12.8319566 78.320615,14.134782 C77.1191205,15.4376074 76.5183823,17.1602062 76.5183823,19.3026302 C76.5183823,21.4740059 77.1191205,23.1893669 78.320615,24.4487648 C79.5221096,25.7081627 81.1940437,26.3378521 83.3364677,26.3378521 L109.305991,26.3378521 L109.392845,26.3378521 C110.608816,26.3668038 111.897146,26.5332735 113.257875,26.837266 C114.618603,27.1412586 115.972074,27.6117163 117.318327,28.2486532 C118.66458,28.88559 119.945672,29.688987 121.161642,30.6588681 C122.377613,31.6287492 123.456047,32.7940367 124.396976,34.1547654 C125.337905,35.5154942 126.0834,37.0788612 126.633482,38.8449134 C127.183564,40.6109656 127.4586,42.6086012 127.4586,44.8378802 L127.4586,44.8378802 Z" id="Path"></path>
                    <path d="M57.1498083,63.1641991 L16.4150047,63.1641991 C15.3727444,63.1641991 14.2508838,63.0411563 13.0493892,62.7950671 C11.8478947,62.5489778 10.6608938,62.1653739 9.48835097,61.6442437 C8.31580812,61.1231136 7.19394752,60.4499972 6.12273553,59.6248745 C5.05152355,58.7997517 4.1033704,57.8009339 3.27824765,56.6283911 C2.4531249,55.4558482 1.79448417,54.0951399 1.30230568,52.5462252 C0.810127203,50.9973106 0.564041654,49.2529983 0.564041654,47.3132361 L0.564041654,16.7404197 C0.564041654,15.6981594 0.687084429,14.5762988 0.933173669,13.3748043 C1.17926291,12.1733098 1.56286685,10.9863089 2.08399701,9.81376604 C2.60512717,8.64122319 3.28548133,7.51936259 4.12507992,6.44815061 C4.96467851,5.37693862 5.97073414,4.42878547 7.14327699,3.60366272 C8.31581984,2.77853997 9.66929036,2.11989924 11.2037292,1.62772076 C12.738168,1.13554227 14.4752424,0.889456724 16.4150047,0.889456724 L57.1498083,0.889456724 L57.1498083,12.1805537 L16.4150047,12.1805537 C14.9384692,12.1805537 13.8093708,12.5713954 13.0276756,13.3530907 C12.2459804,14.1347859 11.8551386,15.2928355 11.8551386,16.8272743 L11.8551386,47.3132361 C11.8551386,48.7608199 12.2532182,49.8826804 13.0493892,50.6788515 C13.8455603,51.4750226 14.9674209,51.8731022 16.4150047,51.8731022 L57.1498083,51.8731022 L57.1498083,63.1641991 Z" id="Path"></path>
                </g>
            </g>
        </g>
    </g>
</svg>